<svg width="129" height="20" viewBox="0 0 129 20" fill="none" xmlns="http://www.w3.org/2000/svg">
<path fill-rule="evenodd" clip-rule="evenodd" d="M124.209 0.672334H129V17.3217H125.168L119.897 9.71042V17.3217H115.106V0.672334H118.939L124.209 8.28361V0.672334ZM2.49163 15.2048C0.838778 13.5399 0.000427246 11.4706 0.000427246 8.99708C0.000427246 6.52334 0.838778 4.45402 2.49163 2.78916C4.14495 1.12429 6.2533 0.291748 8.76859 0.291748C11.8592 0.291748 14.662 1.86148 16.1236 4.33522L11.9549 6.71383C11.4037 5.64322 10.1821 4.9536 8.76859 4.9536C7.59485 4.9536 6.63638 5.33414 5.89386 6.09523C5.15088 6.8563 4.79165 7.83155 4.79165 8.99708C4.79165 10.1624 5.15088 11.1376 5.89386 11.8987C6.63638 12.6598 7.59485 13.0404 8.76859 13.0404C10.206 13.0404 11.4037 12.3744 11.9549 11.2564L16.1236 13.635C14.662 16.1324 11.8592 17.7021 8.76859 17.7021C8.33482 17.7021 7.91315 17.6774 7.50383 17.6279C7.14725 18.038 5.31487 20.0138 2.20892 20L1.29004 19.9839L1.82202 19.2479C2.56139 18.2076 2.91613 17.2695 3.09541 16.6073C3.20884 16.1881 3.23111 15.9927 3.23736 15.8749C2.97937 15.669 2.73075 15.4456 2.49163 15.2048ZM29.1828 11.8987C28.4162 12.6598 27.4339 13.0404 26.2601 13.0404C25.0862 13.0404 24.1039 12.6598 23.3134 11.8987C22.5469 11.114 22.1633 10.1624 22.1633 8.99709C22.1633 7.83158 22.5469 6.88022 23.3134 6.11892C24.1039 5.33417 25.0862 4.95362 26.2601 4.95362C27.4339 4.95362 28.4162 5.33417 29.1828 6.11892C29.9734 6.88022 30.3568 7.83158 30.3568 8.99709C30.3568 10.1624 29.9734 11.114 29.1828 11.8987ZM19.9353 15.2048C21.6606 16.8697 23.7685 17.7022 26.2601 17.7022C28.7516 17.7022 30.86 16.8697 32.5612 15.2048C34.2858 13.516 35.148 11.4467 35.148 8.99709C35.148 6.54725 34.2858 4.47794 32.5612 2.81286C30.86 1.12432 28.7516 0.29177 26.2601 0.29177C23.7685 0.29177 21.6606 1.12432 19.9353 2.81286C18.234 4.47794 17.3719 6.54725 17.3719 8.99709C17.3719 11.4467 18.234 13.516 19.9353 15.2048ZM55.3082 17.3217V0.672334H50.517L46.5638 7.45106L42.611 0.672334H37.8198V17.3217H42.611V9.21107L46.3481 15.4427H46.7798L50.517 9.21107V17.3217H55.3082ZM63.5666 12.9453H69.7949V17.3217H58.7749V0.672356H69.6751V5.00124H63.5666V6.80858H69.0762V11.0901H63.5666V12.9453ZM83.2143 8.99705C83.2143 11.1851 81.8008 12.7074 79.8602 12.7074H77.9435V5.28655H79.8602C81.8008 5.28655 83.2143 6.80871 83.2143 8.99705ZM85.6576 3.07455C84.1006 1.48092 82.1841 0.672267 79.8602 0.672267H72.9125V17.3216H79.8602C82.1841 17.3216 84.1006 16.5367 85.6576 14.943C87.2149 13.3496 88.0056 11.3515 88.0056 8.99705C88.0056 6.64234 87.2149 4.66795 85.6576 3.07455ZM95.4424 17.3216H90.6509V0.672245H95.4424V17.3216ZM103.872 11.3756H106.651L105.262 6.26198L103.872 11.3756ZM108.255 17.3218L107.681 15.1813H102.842L102.266 17.3218H97.1153L102.458 0.672677H108.064L113.406 17.3218H108.255Z" fill="#525DF9"/>
</svg>
